<svg width="39" height="36" viewBox="0 0 39 36" fill="none" xmlns="http://www.w3.org/2000/svg">
<mask id="mask0_3_11002" style="mask-type:alpha" maskUnits="userSpaceOnUse" x="8" y="8" width="23" height="20">
<path fill-rule="evenodd" clip-rule="evenodd" d="M13.5553 11.4H25.2452C26.9381 11.4 28.3102 12.6705 28.3102 14.238V20.9535C28.3102 22.521 26.9381 23.7915 25.2452 23.7915H21.0842L19.6764 26.0438C19.5517 26.25 19.222 26.25 19.0973 26.0438L17.6895 23.7915H13.5553C11.8624 23.7915 10.4902 22.521 10.4902 20.9535V14.238C10.4902 12.6705 11.8624 11.4 13.5553 11.4ZM14.6333 19.4685C14.2948 19.4685 13.9829 19.3365 13.7334 19.1138V19.386H12.7266V15.2775H13.7334V16.581C13.9829 16.3583 14.2859 16.2263 14.6333 16.2263C15.56 16.2263 16.3173 16.9523 16.3173 17.8515C16.3173 18.7508 15.56 19.4685 14.6333 19.4685ZM17.9479 19.386H16.9321V16.6883C16.9321 16.2345 16.6648 16.02 16.3886 16.0118V15.1785C17.0658 15.2198 17.9479 15.6323 17.9479 16.68V19.386ZM20.2734 19.4685C19.3022 19.4685 18.5181 18.7425 18.5181 17.8433C18.5181 16.944 19.3022 16.218 20.2734 16.218C21.2446 16.218 22.0286 16.944 22.0286 17.8433C22.0286 18.7425 21.2446 19.4685 20.2734 19.4685ZM26.0649 19.155C26.0649 20.409 25.0313 20.6813 24.3185 20.706V19.881C24.96 19.848 25.1026 19.5593 25.0937 19.0395V18.9818C24.8442 19.2128 24.5234 19.353 24.167 19.353C23.2404 19.353 22.4831 18.6518 22.4831 17.7938C22.4831 16.9358 23.2404 16.2345 24.167 16.2345C24.5234 16.2345 24.8442 16.3748 25.0937 16.6058V16.3253H26.0649V19.155ZM25.1472 17.7855C25.1472 18.2062 24.764 18.5527 24.2918 18.5527C23.8196 18.5527 23.4365 18.2062 23.4365 17.7855C23.4365 17.3647 23.8196 17.0182 24.2918 17.0182C24.764 17.0182 25.1472 17.3647 25.1472 17.7855ZM15.3818 17.8515C15.3818 18.2887 14.9987 18.6517 14.5176 18.6517C14.0364 18.6517 13.6533 18.297 13.6533 17.8515C13.6533 17.406 14.0364 17.0512 14.5176 17.0512C14.9987 17.0512 15.3818 17.406 15.3818 17.8515ZM21.102 17.8515C21.102 18.2722 20.7278 18.6187 20.2734 18.6187C19.819 18.6187 19.4448 18.2722 19.4448 17.8515C19.4448 17.4307 19.819 17.0842 20.2734 17.0842C20.7278 17.0842 21.102 17.4307 21.102 17.8515Z" fill="#171719"/>
</mask>
<g mask="url(#mask0_3_11002)">
<rect x="8.59961" y="8" width="21.6" height="20" fill="#989BA2"/>
</g>
</svg>
