<svg width="64" height="28" viewBox="0 0 64 28" fill="none" xmlns="http://www.w3.org/2000/svg">
<g id="Logo/Resource/Career">
<g id="Union">
<path d="M27.7815 10.461C28.8926 11.3426 30.3472 11.7834 32.1453 11.7834C33.5191 11.7834 34.5798 11.4693 35.3273 10.841C36.0748 10.2127 36.4485 9.37166 36.4485 8.31777C36.4485 7.59829 36.2617 7.01055 35.8879 6.55454C35.5243 6.09853 35.0646 5.74892 34.5091 5.50572C33.9636 5.25238 33.2767 5.00917 32.4483 4.7761C31.7412 4.57343 31.2059 4.37583 30.8422 4.18329C30.4887 3.98062 30.3119 3.70195 30.3119 3.34727C30.3119 3.00273 30.4786 2.72913 30.8119 2.52646C31.1453 2.32379 31.5897 2.22245 32.1453 2.22245C33.2565 2.22245 34.2414 2.47072 35.1 2.96727L36.0091 1.18883C34.9182 0.509884 33.6302 0.17041 32.1453 0.17041C30.8422 0.17041 29.827 0.464283 29.0997 1.05203C28.3724 1.63977 28.0087 2.44032 28.0087 3.45368C28.0087 4.17316 28.1906 4.7609 28.5542 5.21691C28.928 5.66279 29.3825 6.00733 29.9179 6.25053C30.4533 6.49374 31.12 6.72681 31.918 6.94975C32.6049 7.14228 33.1454 7.35002 33.5393 7.57296C33.9434 7.78576 34.1454 8.0847 34.1454 8.46978C34.1454 8.85485 33.9686 9.16393 33.6151 9.397C33.2716 9.61993 32.7817 9.7314 32.1453 9.7314C30.7412 9.7314 29.63 9.37673 28.8118 8.66738L27.7815 10.461Z" fill="#27272D"/>
<path d="M21.7237 2.43411V11.5999H24.042V2.43411H27.2845V0.351664H18.4811V2.43411H21.7237Z" fill="#27272D"/>
<path d="M9.88939 11.5999V0.351664H17.7989V2.43411H12.1622V4.85095H17.4049V6.88779H12.1622V9.51745H18.011V11.5999H9.88939Z" fill="#27272D"/>
<path d="M1.42465 0.351664V11.5999H8.8038V9.51745H3.69749V0.351664H1.42465Z" fill="#27272D"/>
<path fill-rule="evenodd" clip-rule="evenodd" d="M60.9705 24.2714C61.2331 24.7274 61.5109 25.0669 61.8039 25.2898C62.0968 25.5128 62.4958 25.6749 63.0009 25.7763V27.6915C62.3544 27.6712 61.8089 27.5902 61.3644 27.4483C60.9301 27.3064 60.5412 27.0784 60.1977 26.7643C59.8543 26.4501 59.5159 26.0093 59.1825 25.4419L58.4704 24.241H56.1066V27.6003H53.8338V16.3521H58.6825C59.5007 16.3521 60.228 16.5041 60.8644 16.8081C61.5109 17.1121 62.016 17.563 62.3796 18.1609C62.7433 18.7487 62.9251 19.4631 62.9251 20.3041C62.9251 21.0743 62.7079 21.7532 62.2736 22.341C61.8392 22.9287 61.2887 23.3645 60.622 23.6482L60.9705 24.2714ZM56.1066 18.4041V22.265H58.5916C59.1876 22.265 59.6623 22.0978 60.0159 21.7634C60.3694 21.429 60.5462 20.9426 60.5462 20.3041C60.5462 19.6961 60.3644 19.23 60.0007 18.9057C59.6472 18.5713 59.1926 18.4041 58.637 18.4041H56.1066Z" fill="#27272D"/>
<path d="M43.9641 16.3521V27.6003H52.0857V25.5179H46.2369V22.8882H51.4796V20.8514H46.2369V18.4345H51.8736V16.3521H43.9641Z" fill="#27272D"/>
<path d="M34.0944 27.6003V16.3521H42.0039V18.4345H36.3672V20.8514H41.6099V22.8882H36.3672V25.5179H42.216V27.6003H34.0944Z" fill="#27272D"/>
<path fill-rule="evenodd" clip-rule="evenodd" d="M31.1294 25.2898C30.8365 25.0669 30.5587 24.7274 30.296 24.2714L29.9475 23.6482C30.6142 23.3645 31.1648 22.9287 31.5991 22.341C32.0335 21.7532 32.2507 21.0743 32.2507 20.3041C32.2507 19.4631 32.0688 18.7487 31.7052 18.1609C31.3415 17.563 30.8365 17.1121 30.19 16.8081C29.5536 16.5041 28.8263 16.3521 28.008 16.3521H23.1593V27.6003H25.4322V24.241H27.7959L28.5081 25.4419C28.8414 26.0093 29.1798 26.4501 29.5233 26.7643C29.8667 27.0784 30.2556 27.3064 30.69 27.4483C31.1345 27.5902 31.6799 27.6712 32.3264 27.6915V25.7763C31.8214 25.6749 31.4223 25.5128 31.1294 25.2898ZM25.4322 22.265V18.4041H27.9626C28.5182 18.4041 28.9727 18.5713 29.3263 18.9057C29.6899 19.23 29.8718 19.6961 29.8718 20.3041C29.8718 20.9426 29.695 21.429 29.3414 21.7634C28.9879 22.0978 28.5131 22.265 27.9171 22.265H25.4322Z" fill="#27272D"/>
<path fill-rule="evenodd" clip-rule="evenodd" d="M17.7109 16.288L22.0487 27.6007H19.5177L18.672 25.1241H14.3182L13.4742 27.6007H10.9353L15.2732 16.288H17.7109ZM17.9304 22.9522L16.5298 18.8506H16.456L15.0583 22.9522H17.9304Z" fill="#27272D"/>
<path d="M3.27315 27.0542C4.11158 27.5406 5.10152 27.7838 6.24299 27.7838C7.13193 27.7838 7.95015 27.642 8.69766 27.3582C9.44517 27.0745 10.0866 26.6641 10.622 26.127L9.36436 24.3942C8.9704 24.8097 8.51583 25.1339 8.00066 25.367C7.48548 25.5899 6.96525 25.7014 6.43997 25.7014C5.39952 25.7014 4.57625 25.3619 3.97015 24.683C3.37417 24.004 3.07617 23.1022 3.07617 21.9773C3.07617 20.8424 3.37922 19.9405 3.98531 19.2717C4.5914 18.5927 5.40962 18.2533 6.43997 18.2533C6.94505 18.2533 7.41982 18.3293 7.86429 18.4813C8.30875 18.6231 8.75322 18.8562 9.19769 19.1805L10.1977 17.4172C9.73306 17.0322 9.15223 16.7282 8.45523 16.5052C7.76832 16.2823 7.08142 16.1708 6.39452 16.1708C5.22274 16.1708 4.20754 16.414 3.34891 16.9004C2.49028 17.3767 1.83369 18.0557 1.37912 18.9373C0.92455 19.8088 0.697266 20.8221 0.697266 21.9773C0.697266 23.1224 0.919499 24.1358 1.36397 25.0174C1.80843 25.8889 2.44483 26.5678 3.27315 27.0542Z" fill="#27272D"/>
</g>
</g>
</svg>
