<svg width="11" height="10" viewBox="0 0 11 10" fill="none" xmlns="http://www.w3.org/2000/svg">
<path d="M8.26405 7.11734L10.2269 9.08019L9.57873 9.72837L7.61587 7.76551C6.91008 8.33018 6.015 8.66797 5.0415 8.66797C2.7645 8.66797 0.916504 6.81997 0.916504 4.54297C0.916504 2.26597 2.7645 0.417969 5.0415 0.417969C7.3185 0.417969 9.1665 2.26597 9.1665 4.54297C9.1665 5.51647 8.82871 6.41155 8.26405 7.11734ZM7.34449 6.77725C7.90494 6.19966 8.24984 5.41179 8.24984 4.54297C8.24984 2.77036 6.81411 1.33464 5.0415 1.33464C3.2689 1.33464 1.83317 2.77036 1.83317 4.54297C1.83317 6.31557 3.2689 7.7513 5.0415 7.7513C5.91032 7.7513 6.69819 7.40641 7.27579 6.84596L7.34449 6.77725ZM5.58137 2.79041C5.26306 2.93414 5.0415 3.25435 5.0415 3.6263C5.0415 4.13258 5.4519 4.54297 5.95817 4.54297C6.33011 4.54297 6.65035 4.32141 6.79408 4.00311C6.84656 4.17378 6.87484 4.35505 6.87484 4.54297C6.87484 5.55547 6.05401 6.3763 5.0415 6.3763C4.02898 6.3763 3.20817 5.55547 3.20817 4.54297C3.20817 3.53045 4.02898 2.70964 5.0415 2.70964C5.22942 2.70964 5.41069 2.7379 5.58137 2.79041Z" fill="#00B347"/>
</svg>
