<svg width="12" height="12" viewBox="0 0 12 12" fill="none" xmlns="http://www.w3.org/2000/svg">
<g clip-path="url(#clip0_2536_13736)">
<path d="M6.16634 10.125L6.12048 10.0562C5.80211 9.57865 5.64292 9.33986 5.4326 9.167C5.2464 9.01396 5.03186 8.89915 4.80124 8.82911C4.54075 8.75 4.25377 8.75 3.6798 8.75H3.04967C2.53629 8.75 2.2796 8.75 2.08352 8.65009C1.91103 8.56221 1.7708 8.42197 1.68292 8.24949C1.58301 8.05341 1.58301 7.79672 1.58301 7.28333V3.34167C1.58301 2.82829 1.58301 2.57159 1.68292 2.37551C1.7708 2.20303 1.91103 2.06279 2.08352 1.97491C2.2796 1.875 2.53629 1.875 3.04967 1.875H3.23301C4.25977 1.875 4.77315 1.875 5.16532 2.07482C5.51029 2.25059 5.79075 2.53105 5.96652 2.87602C6.16634 3.26819 6.16634 3.78157 6.16634 4.80833M6.16634 10.125V4.80833M6.16634 10.125L6.2122 10.0562C6.53058 9.57865 6.68977 9.33986 6.90009 9.167C7.08628 9.01396 7.30082 8.89915 7.53144 8.82911C7.79194 8.75 8.07892 8.75 8.65288 8.75H9.28301C9.79639 8.75 10.0531 8.75 10.2492 8.65009C10.4216 8.56221 10.5619 8.42197 10.6498 8.24949C10.7497 8.05341 10.7497 7.79672 10.7497 7.28333V3.34167C10.7497 2.82829 10.7497 2.57159 10.6498 2.37551C10.5619 2.20303 10.4216 2.06279 10.2492 1.97491C10.0531 1.875 9.79639 1.875 9.28301 1.875H9.09967C8.07291 1.875 7.55953 1.875 7.16736 2.07482C6.82239 2.25059 6.54193 2.53105 6.36616 2.87602C6.16634 3.26819 6.16634 3.78157 6.16634 4.80833" stroke="#FFC700" stroke-linecap="round" stroke-linejoin="round"/>
</g>
<defs>
<clipPath id="clip0_2536_13736">
<rect width="11" height="11" fill="white" transform="translate(0.666504 0.5)"/>
</clipPath>
</defs>
</svg>
