<svg width="38" height="35" viewBox="0 0 38 35" fill="none" xmlns="http://www.w3.org/2000/svg">
<path d="M17.1631 1.26548C17.8573 -0.346442 20.1427 -0.346442 20.8369 1.26548L24.4787 9.72202C24.7682 10.3944 25.402 10.8548 26.1309 10.9224L35.2989 11.7727C37.0464 11.9348 37.7527 14.1084 36.4342 15.2667L29.5169 21.3435C28.9669 21.8266 28.7248 22.5716 28.8858 23.2858L30.9102 32.2678C31.296 33.9799 29.4471 35.3233 27.938 34.4272L20.0211 29.7263C19.3917 29.3526 18.6083 29.3526 17.9789 29.7263L10.062 34.4272C8.55294 35.3233 6.70395 33.9799 7.08982 32.2678L9.1142 23.2858C9.27516 22.5716 9.03309 21.8266 8.48312 21.3435L1.56584 15.2667C0.247315 14.1084 0.953567 11.9348 2.70111 11.7727L11.8691 10.9224C12.598 10.8548 13.2318 10.3944 13.5213 9.72202L17.1631 1.26548Z" fill="#ACAFB6"/>
</svg>
