<svg width="38" height="36" viewBox="0 0 38 36" fill="none" xmlns="http://www.w3.org/2000/svg">
<mask id="mask0_3_11001" style="mask-type:alpha" maskUnits="userSpaceOnUse" x="8" y="8" width="22" height="20">
<path d="M24.4711 13.7064C24.4711 14.2431 24.0074 14.6725 23.4277 14.6725C22.8481 14.6725 22.3844 14.2431 22.3844 13.7064C22.3844 13.1697 22.8481 12.7403 23.4277 12.7403C24.0074 12.7403 24.4711 13.1697 24.4711 13.7064ZM27.4852 18C27.4852 20.1827 27.4756 20.46 27.4369 21.3187C27.3983 22.1774 27.2437 22.7589 27.0312 23.2687C26.809 23.7965 26.5095 24.2438 26.0265 24.691C25.5434 25.1383 25.0604 25.4156 24.4904 25.6213C23.9397 25.8181 23.3021 25.9523 22.3844 25.997C21.4569 26.0328 21.1574 26.0417 18.8002 26.0417C16.443 26.0417 16.1435 26.0328 15.2161 25.997C14.2887 25.9612 13.6607 25.8181 13.1101 25.6213C12.5401 25.4156 12.057 25.1383 11.574 24.691C11.091 24.2438 10.7915 23.7965 10.5693 23.2687C10.3568 22.7589 10.2118 22.1685 10.1635 21.3187C10.1249 20.46 10.1152 20.1827 10.1152 18C10.1152 15.8174 10.1249 15.5401 10.1635 14.6814C10.2022 13.8227 10.3568 13.2412 10.5693 12.7314C10.7915 12.2036 11.091 11.7563 11.574 11.3091C12.057 10.8618 12.5401 10.5845 13.1101 10.3788C13.6607 10.182 14.2983 10.0478 15.2161 10.0031C16.1435 9.96732 16.443 9.95837 18.8002 9.95837C21.1574 9.95837 21.4569 9.96732 22.3844 10.0031C23.3118 10.0389 23.9397 10.182 24.4904 10.3788C25.0604 10.5845 25.5434 10.8618 26.0265 11.3091C26.5095 11.7563 26.809 12.2036 27.0312 12.7314C27.2437 13.2412 27.3886 13.8316 27.4369 14.6814C27.4756 15.5401 27.4852 15.8174 27.4852 18ZM25.9202 18C25.9202 15.8532 25.9202 15.5938 25.8719 14.744C25.8332 13.9568 25.6883 13.5364 25.5724 13.2502C25.4178 12.8745 25.2246 12.6061 24.9251 12.3288C24.6256 12.0515 24.3358 11.8726 23.9301 11.7295C23.6209 11.6222 23.1669 11.488 22.3167 11.4522C21.399 11.4164 21.1285 11.4075 18.8002 11.4075C16.472 11.4075 16.2015 11.4075 15.2837 11.4522C14.4336 11.488 13.9795 11.6222 13.6704 11.7295C13.2646 11.8726 12.9748 12.0515 12.6753 12.3288C12.3758 12.6061 12.1826 12.8745 12.0281 13.2502C11.9121 13.5364 11.7672 13.9568 11.7286 14.744C11.6899 15.5938 11.6803 15.8443 11.6803 18C11.6803 20.1558 11.6803 20.4063 11.7286 21.2561C11.7672 22.0432 11.9121 22.4637 12.0281 22.7499C12.1826 23.1256 12.3758 23.394 12.6753 23.6713C12.9748 23.9486 13.2646 24.1275 13.6704 24.2706C13.9795 24.3779 14.4336 24.5121 15.2837 24.5479C16.2015 24.5837 16.472 24.5926 18.8002 24.5926C21.1285 24.5926 21.399 24.5926 22.3167 24.5479C23.1669 24.5121 23.6209 24.3779 23.9301 24.2706C24.3358 24.1275 24.6256 23.9486 24.9251 23.6713C25.2246 23.394 25.4178 23.1256 25.5724 22.7499C25.6883 22.4637 25.8332 22.0432 25.8719 21.2561C25.9105 20.4063 25.9202 20.1558 25.9202 18ZM23.2538 18C23.2538 20.2811 21.2541 22.1327 18.7906 22.1327C16.3271 22.1327 14.3273 20.2811 14.3273 18C14.3273 15.719 16.3271 13.8674 18.7906 13.8674C21.2541 13.8674 23.2538 15.719 23.2538 18ZM21.6888 18C21.6888 16.5152 20.3942 15.3165 18.7906 15.3165C17.1869 15.3165 15.8923 16.5152 15.8923 18C15.8923 19.4849 17.1869 20.6836 18.7906 20.6836C20.3942 20.6836 21.6888 19.4849 21.6888 18Z" fill="#171719"/>
</mask>
<g mask="url(#mask0_3_11001)">
<rect x="8" y="8" width="21.6" height="20" fill="#989BA2"/>
</g>
</svg>
