<svg width="12" height="12" viewBox="0 0 12 12" fill="none" xmlns="http://www.w3.org/2000/svg">
<g clip-path="url(#clip0_2536_13747)">
<path d="M3.99951 10.125V3.70833C3.99951 3.2821 3.99951 3.06898 4.04636 2.89412C4.17351 2.41962 4.54413 2.04899 5.01864 1.92185C5.19349 1.875 5.40661 1.875 5.83285 1.875C6.25908 1.875 6.4722 1.875 6.64705 1.92185C7.12156 2.04899 7.49218 2.41962 7.61933 2.89412C7.66618 3.06898 7.66618 3.2821 7.66618 3.70833V10.125M2.71618 10.125H8.94951C9.46289 10.125 9.71958 10.125 9.91567 10.0251C10.0882 9.93721 10.2284 9.79697 10.3163 9.62449C10.4162 9.42841 10.4162 9.17171 10.4162 8.65833V5.175C10.4162 4.66162 10.4162 4.40493 10.3163 4.20884C10.2284 4.03636 10.0882 3.89613 9.91567 3.80824C9.71958 3.70833 9.46289 3.70833 8.94951 3.70833H2.71618C2.2028 3.70833 1.94611 3.70833 1.75002 3.80824C1.57754 3.89613 1.43731 4.03636 1.34942 4.20884C1.24951 4.40493 1.24951 4.66162 1.24951 5.175V8.65833C1.24951 9.17172 1.24951 9.42841 1.34942 9.62449C1.43731 9.79697 1.57754 9.93721 1.75002 10.0251C1.94611 10.125 2.2028 10.125 2.71618 10.125Z" stroke="#FF6578" stroke-linecap="round" stroke-linejoin="round"/>
</g>
<defs>
<clipPath id="clip0_2536_13747">
<rect width="11" height="11" fill="white" transform="translate(0.333008 0.5)"/>
</clipPath>
</defs>
</svg>
