<svg width="28" height="28" viewBox="0 0 28 28" fill="none" xmlns="http://www.w3.org/2000/svg">
<g id="Logo/Resource/Lets">
<path id="Union" d="M25.7742 26.0306C23.9061 27.1143 20.4906 24.8985 17.1854 20.7984C18.2321 24.1071 18.195 26.7473 16.8632 27.5198C15.3621 28.3906 12.6381 26.6437 10.0204 23.4006C10.4293 25.4638 10.129 27.1335 9.06252 27.7522C7.2927 28.7788 4.08297 26.5221 1.89338 22.7118C-0.296202 18.9015 -0.636488 14.9803 1.13333 13.9537C2.19981 13.3351 3.78914 13.9087 5.36305 15.296C3.87634 11.3967 3.7326 8.1529 5.23374 7.28214C6.56551 6.50962 8.85989 7.79745 11.1886 10.3626C9.30707 5.43685 9.10501 1.35715 10.9731 0.273547C13.5014 -1.19305 18.8643 3.38396 22.9516 10.4966C27.0388 17.6092 28.3026 24.564 25.7742 26.0306Z" fill="url(#paint0_linear_3_7732)"/>
</g>
<defs>
<linearGradient id="paint0_linear_3_7732" x1="28.2978" y1="-7.4001" x2="7.61498" y2="24.0721" gradientUnits="userSpaceOnUse">
<stop stop-color="#907CFF"/>
<stop offset="1" stop-color="#4D55F5"/>
</linearGradient>
</defs>
</svg>