<svg width="36" height="35" viewBox="0 0 36 35" fill="none" xmlns="http://www.w3.org/2000/svg">
<path d="M17.079 1.17599C17.4233 0.362322 18.5765 0.36232 18.9208 1.17598L23.0816 11.0073C23.2249 11.3459 23.5425 11.5786 23.9086 11.6131L34.4135 12.6045C35.2822 12.6865 35.6366 13.7641 34.986 14.3457L27.0353 21.4528C26.7657 21.6938 26.6472 22.0615 26.7254 22.4146L29.048 32.9008C29.2382 33.7594 28.3072 34.4277 27.5545 33.9729L18.517 28.5125C18.199 28.3203 17.8008 28.3203 17.4828 28.5125L8.44527 33.9729C7.69257 34.4277 6.76162 33.7594 6.95179 32.9008L9.27443 22.4146C9.35262 22.0615 9.23413 21.6938 8.96454 21.4528L1.01384 14.3457C0.363242 13.7641 0.717553 12.6865 1.58633 12.6045L12.0912 11.6131C12.4573 11.5786 12.7749 11.3459 12.9182 11.0073L17.079 1.17599Z" fill="#7177F7"/>
</svg>
