<svg width="37" height="35" viewBox="0 0 37 35" fill="none" xmlns="http://www.w3.org/2000/svg">
<path d="M16.6631 1.26548C17.3573 -0.346442 19.6427 -0.346442 20.3369 1.26548L23.9787 9.72202C24.2682 10.3944 24.902 10.8548 25.6309 10.9224L34.7989 11.7727C36.5464 11.9348 37.2527 14.1084 35.9342 15.2667L29.0169 21.3435C28.4669 21.8266 28.2248 22.5716 28.3858 23.2858L30.4102 32.2678C30.796 33.9799 28.9471 35.3233 27.438 34.4272L19.5211 29.7263C18.8917 29.3526 18.1083 29.3526 17.4789 29.7263L9.56201 34.4272C8.05294 35.3233 6.20395 33.9799 6.58982 32.2678L8.6142 23.2858C8.77516 22.5716 8.53309 21.8266 7.98312 21.3435L1.06584 15.2667C-0.252685 14.1084 0.453567 11.9348 2.20111 11.7727L11.3691 10.9224C12.098 10.8548 12.7318 10.3944 13.0213 9.72202L16.6631 1.26548Z" fill="#9499F9"/>
</svg>
